<mxfile host="app.diagrams.net" agent="Mozilla/5.0 (Windows NT 10.0; Win64; x64) AppleWebKit/537.36 (KHTML, like Gecko) Chrome/127.0.0.0 Safari/537.36" version="24.7.5">
  <diagram name="PÃ¡gina-1" id="76HAJhtmkmuk8l9MemGc">
    <mxGraphModel dx="4018" dy="1148" grid="1" gridSize="10" guides="1" tooltips="1" connect="1" arrows="1" fold="1" page="1" pageScale="1" pageWidth="827" pageHeight="1169" math="0" shadow="0">
      <root>
        <mxCell id="0" />
        <mxCell id="1" parent="0" />
        <mxCell id="wOK-fUtBwsGr5-ql17yo-1" value="IUseCase" style="html=1;whiteSpace=wrap;" parent="1" vertex="1">
          <mxGeometry x="370" y="400" width="110" height="50" as="geometry" />
        </mxCell>
        <mxCell id="wOK-fUtBwsGr5-ql17yo-2" value="@RestController" style="html=1;dropTarget=0;whiteSpace=wrap;" parent="1" vertex="1">
          <mxGeometry x="-75" y="20" width="120" height="60" as="geometry" />
        </mxCell>
        <mxCell id="wOK-fUtBwsGr5-ql17yo-3" value="" style="shape=module;jettyWidth=8;jettyHeight=4;" parent="wOK-fUtBwsGr5-ql17yo-2" vertex="1">
          <mxGeometry x="1" width="20" height="20" relative="1" as="geometry">
            <mxPoint x="-27" y="7" as="offset" />
          </mxGeometry>
        </mxCell>
        <mxCell id="wOK-fUtBwsGr5-ql17yo-10" value="" style="endArrow=block;dashed=1;endFill=0;endSize=12;html=1;rounded=0;entryX=1;entryY=0.5;entryDx=0;entryDy=0;edgeStyle=orthogonalEdgeStyle;exitX=0;exitY=0.5;exitDx=0;exitDy=0;" parent="1" target="wOK-fUtBwsGr5-ql17yo-1" edge="1" source="vCx5kdaSZCHCUFPWW5jM-23">
          <mxGeometry width="160" relative="1" as="geometry">
            <mxPoint x="710" y="410" as="sourcePoint" />
            <mxPoint x="864" y="620" as="targetPoint" />
            <Array as="points">
              <mxPoint x="718" y="410" />
              <mxPoint x="580" y="410" />
              <mxPoint x="580" y="425" />
            </Array>
          </mxGeometry>
        </mxCell>
        <mxCell id="vCx5kdaSZCHCUFPWW5jM-6" value="Implementa" style="edgeLabel;html=1;align=center;verticalAlign=middle;resizable=0;points=[];" vertex="1" connectable="0" parent="wOK-fUtBwsGr5-ql17yo-10">
          <mxGeometry x="0.4367" y="1" relative="1" as="geometry">
            <mxPoint as="offset" />
          </mxGeometry>
        </mxCell>
        <mxCell id="wOK-fUtBwsGr5-ql17yo-11" value="IGateway" style="html=1;whiteSpace=wrap;" parent="1" vertex="1">
          <mxGeometry x="827" y="630" width="110" height="50" as="geometry" />
        </mxCell>
        <mxCell id="wOK-fUtBwsGr5-ql17yo-19" value="" style="endArrow=block;dashed=1;endFill=0;endSize=12;html=1;rounded=0;exitX=0.5;exitY=0;exitDx=0;exitDy=0;entryX=0.5;entryY=1;entryDx=0;entryDy=0;" parent="1" source="vCx5kdaSZCHCUFPWW5jM-24" target="wOK-fUtBwsGr5-ql17yo-11" edge="1">
          <mxGeometry width="160" relative="1" as="geometry">
            <mxPoint x="1237.5" y="830" as="sourcePoint" />
            <mxPoint x="1025" y="750" as="targetPoint" />
          </mxGeometry>
        </mxCell>
        <mxCell id="vCx5kdaSZCHCUFPWW5jM-12" value="Implementa" style="edgeLabel;html=1;align=center;verticalAlign=middle;resizable=0;points=[];" vertex="1" connectable="0" parent="wOK-fUtBwsGr5-ql17yo-19">
          <mxGeometry x="0.0375" y="1" relative="1" as="geometry">
            <mxPoint as="offset" />
          </mxGeometry>
        </mxCell>
        <mxCell id="wOK-fUtBwsGr5-ql17yo-20" value="Domain&lt;div&gt;Entity&lt;/div&gt;" style="html=1;whiteSpace=wrap;" parent="1" vertex="1">
          <mxGeometry x="1090" y="390" width="110" height="50" as="geometry" />
        </mxCell>
        <mxCell id="wOK-fUtBwsGr5-ql17yo-28" value="IPresenter" style="html=1;whiteSpace=wrap;" parent="1" vertex="1">
          <mxGeometry x="-70" y="550" width="110" height="50" as="geometry" />
        </mxCell>
        <mxCell id="wOK-fUtBwsGr5-ql17yo-34" value="" style="endArrow=block;dashed=1;endFill=0;endSize=12;html=1;rounded=0;entryX=0.548;entryY=1.017;entryDx=0;entryDy=0;entryPerimeter=0;exitX=0.5;exitY=0;exitDx=0;exitDy=0;" parent="1" source="vCx5kdaSZCHCUFPWW5jM-25" target="wOK-fUtBwsGr5-ql17yo-28" edge="1">
          <mxGeometry width="160" relative="1" as="geometry">
            <mxPoint x="-8" y="660" as="sourcePoint" />
            <mxPoint x="-10" y="570" as="targetPoint" />
          </mxGeometry>
        </mxCell>
        <mxCell id="vCx5kdaSZCHCUFPWW5jM-11" value="Implementa" style="edgeLabel;html=1;align=center;verticalAlign=middle;resizable=0;points=[];" vertex="1" connectable="0" parent="wOK-fUtBwsGr5-ql17yo-34">
          <mxGeometry x="-0.0784" y="-1" relative="1" as="geometry">
            <mxPoint as="offset" />
          </mxGeometry>
        </mxCell>
        <mxCell id="wOK-fUtBwsGr5-ql17yo-39" value="ORM Entity" style="html=1;whiteSpace=wrap;" parent="1" vertex="1">
          <mxGeometry x="1010" y="1055" width="110" height="50" as="geometry" />
        </mxCell>
        <mxCell id="wOK-fUtBwsGr5-ql17yo-73" value="" style="edgeStyle=orthogonalEdgeStyle;rounded=0;orthogonalLoop=1;jettySize=auto;html=1;" parent="1" source="wOK-fUtBwsGr5-ql17yo-47" target="wOK-fUtBwsGr5-ql17yo-1" edge="1">
          <mxGeometry relative="1" as="geometry" />
        </mxCell>
        <mxCell id="wOK-fUtBwsGr5-ql17yo-47" value="RequestModel" style="html=1;whiteSpace=wrap;" parent="1" vertex="1">
          <mxGeometry x="370" y="306" width="110" height="50" as="geometry" />
        </mxCell>
        <mxCell id="wOK-fUtBwsGr5-ql17yo-74" value="" style="edgeStyle=orthogonalEdgeStyle;rounded=0;orthogonalLoop=1;jettySize=auto;html=1;" parent="1" source="wOK-fUtBwsGr5-ql17yo-68" target="wOK-fUtBwsGr5-ql17yo-1" edge="1">
          <mxGeometry relative="1" as="geometry" />
        </mxCell>
        <mxCell id="wOK-fUtBwsGr5-ql17yo-68" value="ResponseModel" style="html=1;whiteSpace=wrap;" parent="1" vertex="1">
          <mxGeometry x="370" y="500" width="110" height="50" as="geometry" />
        </mxCell>
        <mxCell id="wOK-fUtBwsGr5-ql17yo-92" value="" style="endArrow=open;endFill=1;endSize=12;html=1;rounded=0;entryX=0.5;entryY=1;entryDx=0;entryDy=0;exitX=0.5;exitY=0;exitDx=0;exitDy=0;" parent="1" source="vCx5kdaSZCHCUFPWW5jM-22" target="wOK-fUtBwsGr5-ql17yo-2" edge="1">
          <mxGeometry width="160" relative="1" as="geometry">
            <mxPoint x="22.160000000000025" y="180" as="sourcePoint" />
            <mxPoint x="22.160000000000025" y="90" as="targetPoint" />
          </mxGeometry>
        </mxCell>
        <mxCell id="wOK-fUtBwsGr5-ql17yo-96" value="" style="endArrow=open;endFill=1;endSize=12;html=1;rounded=0;entryX=0.5;entryY=0;entryDx=0;entryDy=0;exitX=0.5;exitY=1;exitDx=0;exitDy=0;" parent="1" target="vCx5kdaSZCHCUFPWW5jM-21" edge="1" source="vCx5kdaSZCHCUFPWW5jM-22">
          <mxGeometry width="160" relative="1" as="geometry">
            <mxPoint x="-15.290000000000006" y="250" as="sourcePoint" />
            <mxPoint x="-15.290000000000006" y="340" as="targetPoint" />
          </mxGeometry>
        </mxCell>
        <mxCell id="vCx5kdaSZCHCUFPWW5jM-7" value="usa" style="edgeLabel;html=1;align=center;verticalAlign=middle;resizable=0;points=[];" vertex="1" connectable="0" parent="wOK-fUtBwsGr5-ql17yo-96">
          <mxGeometry x="-0.2" relative="1" as="geometry">
            <mxPoint as="offset" />
          </mxGeometry>
        </mxCell>
        <mxCell id="wOK-fUtBwsGr5-ql17yo-97" value="" style="endArrow=open;endFill=1;endSize=12;html=1;rounded=0;entryX=0.5;entryY=0;entryDx=0;entryDy=0;exitX=0.5;exitY=1;exitDx=0;exitDy=0;" parent="1" target="wOK-fUtBwsGr5-ql17yo-28" edge="1" source="vCx5kdaSZCHCUFPWW5jM-21">
          <mxGeometry width="160" relative="1" as="geometry">
            <mxPoint x="-15.250000000000007" y="476" as="sourcePoint" />
            <mxPoint x="-14.75" y="536" as="targetPoint" />
          </mxGeometry>
        </mxCell>
        <mxCell id="vCx5kdaSZCHCUFPWW5jM-10" value="Injeta" style="edgeLabel;html=1;align=center;verticalAlign=middle;resizable=0;points=[];" vertex="1" connectable="0" parent="wOK-fUtBwsGr5-ql17yo-97">
          <mxGeometry x="-0.1891" y="1" relative="1" as="geometry">
            <mxPoint as="offset" />
          </mxGeometry>
        </mxCell>
        <mxCell id="wOK-fUtBwsGr5-ql17yo-98" value="" style="endArrow=open;endFill=1;endSize=12;html=1;rounded=0;entryX=0;entryY=0.5;entryDx=0;entryDy=0;exitX=1;exitY=0.5;exitDx=0;exitDy=0;edgeStyle=orthogonalEdgeStyle;" parent="1" source="vCx5kdaSZCHCUFPWW5jM-21" target="wOK-fUtBwsGr5-ql17yo-47" edge="1">
          <mxGeometry width="160" relative="1" as="geometry">
            <mxPoint x="170" y="390" as="sourcePoint" />
            <mxPoint x="170.29" y="530" as="targetPoint" />
          </mxGeometry>
        </mxCell>
        <mxCell id="vCx5kdaSZCHCUFPWW5jM-17" value="usa" style="edgeLabel;html=1;align=center;verticalAlign=middle;resizable=0;points=[];" vertex="1" connectable="0" parent="wOK-fUtBwsGr5-ql17yo-98">
          <mxGeometry x="0.5853" relative="1" as="geometry">
            <mxPoint x="1" as="offset" />
          </mxGeometry>
        </mxCell>
        <mxCell id="wOK-fUtBwsGr5-ql17yo-99" value="" style="endArrow=open;endFill=1;endSize=12;html=1;rounded=0;entryX=0;entryY=0.5;entryDx=0;entryDy=0;edgeStyle=orthogonalEdgeStyle;exitX=1;exitY=0.5;exitDx=0;exitDy=0;" parent="1" target="wOK-fUtBwsGr5-ql17yo-1" edge="1" source="vCx5kdaSZCHCUFPWW5jM-21">
          <mxGeometry width="160" relative="1" as="geometry">
            <mxPoint x="60" y="410" as="sourcePoint" />
            <mxPoint x="120.29" y="550" as="targetPoint" />
          </mxGeometry>
        </mxCell>
        <mxCell id="vCx5kdaSZCHCUFPWW5jM-16" value="Injeta" style="edgeLabel;html=1;align=center;verticalAlign=middle;resizable=0;points=[];" vertex="1" connectable="0" parent="wOK-fUtBwsGr5-ql17yo-99">
          <mxGeometry x="0.3097" y="3" relative="1" as="geometry">
            <mxPoint x="1" as="offset" />
          </mxGeometry>
        </mxCell>
        <mxCell id="wOK-fUtBwsGr5-ql17yo-100" value="" style="endArrow=open;endFill=1;endSize=12;html=1;rounded=0;entryX=0;entryY=0.5;entryDx=0;entryDy=0;edgeStyle=orthogonalEdgeStyle;exitX=1;exitY=0.5;exitDx=0;exitDy=0;" parent="1" target="wOK-fUtBwsGr5-ql17yo-68" edge="1" source="vCx5kdaSZCHCUFPWW5jM-21">
          <mxGeometry width="160" relative="1" as="geometry">
            <mxPoint x="60" y="410" as="sourcePoint" />
            <mxPoint x="170.29" y="570" as="targetPoint" />
          </mxGeometry>
        </mxCell>
        <mxCell id="wOK-fUtBwsGr5-ql17yo-101" value="" style="endArrow=open;endFill=1;endSize=12;html=1;rounded=0;entryX=1;entryY=0.5;entryDx=0;entryDy=0;exitX=0.5;exitY=0;exitDx=0;exitDy=0;edgeStyle=orthogonalEdgeStyle;" parent="1" source="vCx5kdaSZCHCUFPWW5jM-23" target="wOK-fUtBwsGr5-ql17yo-47" edge="1">
          <mxGeometry width="160" relative="1" as="geometry">
            <mxPoint x="670" y="261" as="sourcePoint" />
            <mxPoint x="670.29" y="401" as="targetPoint" />
          </mxGeometry>
        </mxCell>
        <mxCell id="vCx5kdaSZCHCUFPWW5jM-15" value="usa" style="edgeLabel;html=1;align=center;verticalAlign=middle;resizable=0;points=[];" vertex="1" connectable="0" parent="wOK-fUtBwsGr5-ql17yo-101">
          <mxGeometry x="0.1259" y="1" relative="1" as="geometry">
            <mxPoint x="1" as="offset" />
          </mxGeometry>
        </mxCell>
        <mxCell id="wOK-fUtBwsGr5-ql17yo-102" value="" style="endArrow=open;endFill=1;endSize=12;html=1;rounded=0;entryX=1;entryY=0.5;entryDx=0;entryDy=0;exitX=0;exitY=0.5;exitDx=0;exitDy=0;edgeStyle=orthogonalEdgeStyle;" parent="1" source="vCx5kdaSZCHCUFPWW5jM-23" target="wOK-fUtBwsGr5-ql17yo-68" edge="1">
          <mxGeometry width="160" relative="1" as="geometry">
            <mxPoint x="610" y="476" as="sourcePoint" />
            <mxPoint x="610.29" y="616" as="targetPoint" />
            <Array as="points">
              <mxPoint x="660" y="409" />
              <mxPoint x="660" y="525" />
            </Array>
          </mxGeometry>
        </mxCell>
        <mxCell id="vCx5kdaSZCHCUFPWW5jM-14" value="usa" style="edgeLabel;html=1;align=center;verticalAlign=middle;resizable=0;points=[];" vertex="1" connectable="0" parent="wOK-fUtBwsGr5-ql17yo-102">
          <mxGeometry x="0.0938" relative="1" as="geometry">
            <mxPoint as="offset" />
          </mxGeometry>
        </mxCell>
        <mxCell id="wOK-fUtBwsGr5-ql17yo-103" value="" style="endArrow=open;endFill=1;endSize=12;html=1;rounded=0;entryX=0;entryY=0.5;entryDx=0;entryDy=0;edgeStyle=orthogonalEdgeStyle;exitX=1;exitY=0.5;exitDx=0;exitDy=0;" parent="1" source="wOK-fUtBwsGr5-ql17yo-28" target="wOK-fUtBwsGr5-ql17yo-68" edge="1">
          <mxGeometry width="160" relative="1" as="geometry">
            <mxPoint x="70" y="597.5" as="sourcePoint" />
            <mxPoint x="380" y="712.5" as="targetPoint" />
            <Array as="points">
              <mxPoint x="240" y="575" />
              <mxPoint x="240" y="525" />
            </Array>
          </mxGeometry>
        </mxCell>
        <mxCell id="vCx5kdaSZCHCUFPWW5jM-18" value="usa" style="edgeLabel;html=1;align=center;verticalAlign=middle;resizable=0;points=[];" vertex="1" connectable="0" parent="wOK-fUtBwsGr5-ql17yo-103">
          <mxGeometry x="-0.1842" y="-4" relative="1" as="geometry">
            <mxPoint as="offset" />
          </mxGeometry>
        </mxCell>
        <mxCell id="wOK-fUtBwsGr5-ql17yo-105" value="" style="endArrow=open;endFill=1;endSize=12;html=1;rounded=0;entryX=0.5;entryY=1;entryDx=0;entryDy=0;exitX=1;exitY=0.5;exitDx=0;exitDy=0;edgeStyle=orthogonalEdgeStyle;" parent="1" source="vCx5kdaSZCHCUFPWW5jM-24" target="wOK-fUtBwsGr5-ql17yo-20" edge="1">
          <mxGeometry width="160" relative="1" as="geometry">
            <mxPoint x="1010" y="650" as="sourcePoint" />
            <mxPoint x="1010.29" y="790" as="targetPoint" />
          </mxGeometry>
        </mxCell>
        <mxCell id="vCx5kdaSZCHCUFPWW5jM-13" value="usa" style="edgeLabel;html=1;align=center;verticalAlign=middle;resizable=0;points=[];" vertex="1" connectable="0" parent="wOK-fUtBwsGr5-ql17yo-105">
          <mxGeometry x="-0.5594" y="-2" relative="1" as="geometry">
            <mxPoint as="offset" />
          </mxGeometry>
        </mxCell>
        <mxCell id="wOK-fUtBwsGr5-ql17yo-106" value="" style="endArrow=open;endFill=1;endSize=12;html=1;rounded=0;entryX=0.091;entryY=0.4;entryDx=0;entryDy=0;entryPerimeter=0;exitX=1;exitY=0.5;exitDx=0;exitDy=0;" parent="1" target="wOK-fUtBwsGr5-ql17yo-20" edge="1" source="vCx5kdaSZCHCUFPWW5jM-23">
          <mxGeometry width="160" relative="1" as="geometry">
            <mxPoint x="840" y="410" as="sourcePoint" />
            <mxPoint x="970.29" y="540" as="targetPoint" />
          </mxGeometry>
        </mxCell>
        <mxCell id="vCx5kdaSZCHCUFPWW5jM-5" value="usa" style="edgeLabel;html=1;align=center;verticalAlign=middle;resizable=0;points=[];" vertex="1" connectable="0" parent="wOK-fUtBwsGr5-ql17yo-106">
          <mxGeometry y="-2" relative="1" as="geometry">
            <mxPoint as="offset" />
          </mxGeometry>
        </mxCell>
        <mxCell id="vCx5kdaSZCHCUFPWW5jM-3" value="" style="endArrow=open;endFill=1;endSize=12;html=1;rounded=0;entryX=0;entryY=0.5;entryDx=0;entryDy=0;exitX=0.5;exitY=1;exitDx=0;exitDy=0;" edge="1" parent="1" source="vCx5kdaSZCHCUFPWW5jM-23" target="wOK-fUtBwsGr5-ql17yo-11">
          <mxGeometry width="160" relative="1" as="geometry">
            <mxPoint x="780" y="540" as="sourcePoint" />
            <mxPoint x="1110" y="420" as="targetPoint" />
            <Array as="points">
              <mxPoint x="773" y="655" />
            </Array>
          </mxGeometry>
        </mxCell>
        <mxCell id="vCx5kdaSZCHCUFPWW5jM-4" value="Injeta" style="edgeLabel;html=1;align=center;verticalAlign=middle;resizable=0;points=[];" vertex="1" connectable="0" parent="vCx5kdaSZCHCUFPWW5jM-3">
          <mxGeometry x="-0.2695" relative="1" as="geometry">
            <mxPoint as="offset" />
          </mxGeometry>
        </mxCell>
        <mxCell id="vCx5kdaSZCHCUFPWW5jM-19" value="" style="endArrow=open;endFill=1;endSize=12;html=1;rounded=0;entryX=0;entryY=0.5;entryDx=0;entryDy=0;exitX=0.5;exitY=1;exitDx=0;exitDy=0;edgeStyle=orthogonalEdgeStyle;" edge="1" parent="1" source="vCx5kdaSZCHCUFPWW5jM-24" target="wOK-fUtBwsGr5-ql17yo-39">
          <mxGeometry width="160" relative="1" as="geometry">
            <mxPoint x="1290" y="872.5" as="sourcePoint" />
            <mxPoint x="1508" y="437.5" as="targetPoint" />
          </mxGeometry>
        </mxCell>
        <mxCell id="vCx5kdaSZCHCUFPWW5jM-20" value="usa" style="edgeLabel;html=1;align=center;verticalAlign=middle;resizable=0;points=[];" vertex="1" connectable="0" parent="vCx5kdaSZCHCUFPWW5jM-19">
          <mxGeometry x="-0.5594" y="-2" relative="1" as="geometry">
            <mxPoint as="offset" />
          </mxGeometry>
        </mxCell>
        <mxCell id="vCx5kdaSZCHCUFPWW5jM-21" value="Controller" style="html=1;whiteSpace=wrap;" vertex="1" parent="1">
          <mxGeometry x="-70" y="384" width="110" height="50" as="geometry" />
        </mxCell>
        <mxCell id="vCx5kdaSZCHCUFPWW5jM-22" value="ApiHandler" style="html=1;whiteSpace=wrap;" vertex="1" parent="1">
          <mxGeometry x="-70" y="180" width="110" height="50" as="geometry" />
        </mxCell>
        <mxCell id="vCx5kdaSZCHCUFPWW5jM-23" value="UseCase" style="html=1;whiteSpace=wrap;" vertex="1" parent="1">
          <mxGeometry x="717" y="384" width="110" height="50" as="geometry" />
        </mxCell>
        <mxCell id="vCx5kdaSZCHCUFPWW5jM-24" value="GatewayImpl" style="html=1;whiteSpace=wrap;" vertex="1" parent="1">
          <mxGeometry x="827" y="860" width="110" height="50" as="geometry" />
        </mxCell>
        <mxCell id="vCx5kdaSZCHCUFPWW5jM-25" value="PresenterImpl" style="html=1;whiteSpace=wrap;" vertex="1" parent="1">
          <mxGeometry x="-65" y="690" width="110" height="50" as="geometry" />
        </mxCell>
        <mxCell id="vCx5kdaSZCHCUFPWW5jM-26" value="DB" style="shape=cylinder3;whiteSpace=wrap;html=1;boundedLbl=1;backgroundOutline=1;size=15;" vertex="1" parent="1">
          <mxGeometry x="1300" y="1040" width="60" height="80" as="geometry" />
        </mxCell>
        <mxCell id="vCx5kdaSZCHCUFPWW5jM-27" value="" style="endArrow=open;endFill=1;endSize=12;html=1;rounded=0;entryX=0;entryY=0.5;entryDx=0;entryDy=0;exitX=1;exitY=0.5;exitDx=0;exitDy=0;edgeStyle=orthogonalEdgeStyle;entryPerimeter=0;" edge="1" parent="1" source="wOK-fUtBwsGr5-ql17yo-39" target="vCx5kdaSZCHCUFPWW5jM-26">
          <mxGeometry width="160" relative="1" as="geometry">
            <mxPoint x="1166" y="1010" as="sourcePoint" />
            <mxPoint x="1314" y="1115" as="targetPoint" />
          </mxGeometry>
        </mxCell>
        <mxCell id="vCx5kdaSZCHCUFPWW5jM-28" value="usa" style="edgeLabel;html=1;align=center;verticalAlign=middle;resizable=0;points=[];" vertex="1" connectable="0" parent="vCx5kdaSZCHCUFPWW5jM-27">
          <mxGeometry x="-0.5594" y="-2" relative="1" as="geometry">
            <mxPoint as="offset" />
          </mxGeometry>
        </mxCell>
        <mxCell id="vCx5kdaSZCHCUFPWW5jM-29" value="Mercado Pago" style="html=1;whiteSpace=wrap;strokeColor=none;fillColor=#0079D6;labelPosition=center;verticalLabelPosition=middle;verticalAlign=top;align=center;fontSize=12;outlineConnect=0;spacingTop=-6;fontColor=#FFFFFF;sketch=0;shape=mxgraph.sitemap.payment;" vertex="1" parent="1">
          <mxGeometry x="1140" y="940" width="90" height="50" as="geometry" />
        </mxCell>
        <mxCell id="vCx5kdaSZCHCUFPWW5jM-32" value="" style="endArrow=open;endFill=1;endSize=12;html=1;rounded=0;exitX=0.573;exitY=1.04;exitDx=0;exitDy=0;edgeStyle=orthogonalEdgeStyle;exitPerimeter=0;" edge="1" parent="1" source="vCx5kdaSZCHCUFPWW5jM-24">
          <mxGeometry width="160" relative="1" as="geometry">
            <mxPoint x="892" y="920" as="sourcePoint" />
            <mxPoint x="1140" y="960" as="targetPoint" />
            <Array as="points">
              <mxPoint x="890" y="960" />
              <mxPoint x="1031" y="960" />
            </Array>
          </mxGeometry>
        </mxCell>
      </root>
    </mxGraphModel>
  </diagram>
</mxfile>
